solid OpenSCAD_Model
  facet normal 0 1 0
    outer loop
      vertex 0.5 1.5 0.375
      vertex 1.5 1.5 0.375
      vertex 0.5 1.5 -0.375
    endloop
  endfacet
  facet normal 0 1 0
    outer loop
      vertex 0.5 1.5 -0.375
      vertex 1.5 1.5 0.375
      vertex 1.5 1.5 -0.375
    endloop
  endfacet
  facet normal -0.707107 0.707107 0
    outer loop
      vertex -0.5 0.5 0.375
      vertex 0.5 1.5 0.375
      vertex -0.5 0.5 -0.375
    endloop
  endfacet
  facet normal -0.707107 0.707107 0
    outer loop
      vertex -0.5 0.5 -0.375
      vertex 0.5 1.5 0.375
      vertex 0.5 1.5 -0.375
    endloop
  endfacet
  facet normal 0 0 -1
    outer loop
      vertex 0.5 1.5 -0.375
      vertex 1.5 1.5 -0.375
      vertex -0.5 0.5 -0.375
    endloop
  endfacet
  facet normal 0 0 -1
    outer loop
      vertex -0.5 0.5 -0.375
      vertex 1.5 1.5 -0.375
      vertex 1.5 0.5 -0.375
    endloop
  endfacet
  facet normal 0 0 -1
    outer loop
      vertex -0.5 0.5 -0.375
      vertex 1.5 0.5 -0.375
      vertex 0.5 -0.5 -0.375
    endloop
  endfacet
  facet normal 1 0 0
    outer loop
      vertex 1.5 0.5 -0.375
      vertex 1.5 1.5 -0.375
      vertex 1.5 1.5 0.375
    endloop
  endfacet
  facet normal 1 0 0
    outer loop
      vertex 1.5 0.5 0.375
      vertex 1.5 0.5 -0.375
      vertex 1.5 1.5 0.375
    endloop
  endfacet
  facet normal 0 0 1
    outer loop
      vertex -0.5 0.5 0.375
      vertex 0.5 -0.5 0.375
      vertex 1.5 0.5 0.375
    endloop
  endfacet
  facet normal 0 0 1
    outer loop
      vertex 0.5 1.5 0.375
      vertex -0.5 0.5 0.375
      vertex 1.5 1.5 0.375
    endloop
  endfacet
  facet normal 0 0 1
    outer loop
      vertex 1.5 1.5 0.375
      vertex -0.5 0.5 0.375
      vertex 1.5 0.5 0.375
    endloop
  endfacet
  facet normal -0.707107 -0.707107 0
    outer loop
      vertex -0.5 0.5 -0.375
      vertex 0.5 -0.5 -0.375
      vertex 0.5 -0.5 0.375
    endloop
  endfacet
  facet normal -0.707107 -0.707107 0
    outer loop
      vertex -0.5 0.5 0.375
      vertex -0.5 0.5 -0.375
      vertex 0.5 -0.5 0.375
    endloop
  endfacet
  facet normal 0.707107 -0.707107 0
    outer loop
      vertex 0.5 -0.5 -0.375
      vertex 1.5 0.5 -0.375
      vertex 1.5 0.5 0.375
    endloop
  endfacet
  facet normal 0.707107 -0.707107 0
    outer loop
      vertex 0.5 -0.5 0.375
      vertex 0.5 -0.5 -0.375
      vertex 1.5 0.5 0.375
    endloop
  endfacet
  facet normal 0 -1 0
    outer loop
      vertex -2 -2 -0.375
      vertex -1 -2 -0.375
      vertex -1 -2 0.375
    endloop
  endfacet
  facet normal 0 -1 0
    outer loop
      vertex -2 -2 0.375
      vertex -2 -2 -0.375
      vertex -1 -2 0.375
    endloop
  endfacet
  facet normal 1 0 0
    outer loop
      vertex -1 -2 -0.375
      vertex -1 -1 -0.375
      vertex -1 -1 0.375
    endloop
  endfacet
  facet normal 1 0 0
    outer loop
      vertex -1 -2 0.375
      vertex -1 -2 -0.375
      vertex -1 -1 0.375
    endloop
  endfacet
  facet normal 0 0 -1
    outer loop
      vertex -2 -1 -0.375
      vertex -1 -1 -0.375
      vertex -2 -2 -0.375
    endloop
  endfacet
  facet normal 0 0 -1
    outer loop
      vertex -2 -2 -0.375
      vertex -1 -1 -0.375
      vertex -1 -2 -0.375
    endloop
  endfacet
  facet normal -1 0 0
    outer loop
      vertex -2 -2 0.375
      vertex -2 -1 0.375
      vertex -2 -2 -0.375
    endloop
  endfacet
  facet normal -1 0 0
    outer loop
      vertex -2 -2 -0.375
      vertex -2 -1 0.375
      vertex -2 -1 -0.375
    endloop
  endfacet
  facet normal 0 0 1
    outer loop
      vertex -2 -2 0.375
      vertex -1 -2 0.375
      vertex -1 -1 0.375
    endloop
  endfacet
  facet normal 0 0 1
    outer loop
      vertex -2 -1 0.375
      vertex -2 -2 0.375
      vertex -1 -1 0.375
    endloop
  endfacet
  facet normal 0 1 0
    outer loop
      vertex -2 -1 0.375
      vertex -1 -1 0.375
      vertex -2 -1 -0.375
    endloop
  endfacet
  facet normal 0 1 0
    outer loop
      vertex -2 -1 -0.375
      vertex -1 -1 0.375
      vertex -1 -1 -0.375
    endloop
  endfacet
  facet normal 0.707107 -0.707107 0
    outer loop
      vertex -2 -0.5 -0.375
      vertex 0 1.5 -0.375
      vertex 0 1.5 0.375
    endloop
  endfacet
  facet normal 0.707107 -0.707107 0
    outer loop
      vertex -2 -0.5 0.375
      vertex -2 -0.5 -0.375
      vertex 0 1.5 0.375
    endloop
  endfacet
  facet normal 0 1 0
    outer loop
      vertex -2 1.5 0.375
      vertex 0 1.5 0.375
      vertex -2 1.5 -0.375
    endloop
  endfacet
  facet normal 0 1 0
    outer loop
      vertex -2 1.5 -0.375
      vertex 0 1.5 0.375
      vertex 0 1.5 -0.375
    endloop
  endfacet
  facet normal 0 0 -1
    outer loop
      vertex -2 -0.5 -0.375
      vertex -2 1.5 -0.375
      vertex 0 1.5 -0.375
    endloop
  endfacet
  facet normal -1 0 0
    outer loop
      vertex -2 -0.5 0.375
      vertex -2 1.5 0.375
      vertex -2 -0.5 -0.375
    endloop
  endfacet
  facet normal -1 0 0
    outer loop
      vertex -2 -0.5 -0.375
      vertex -2 1.5 0.375
      vertex -2 1.5 -0.375
    endloop
  endfacet
  facet normal 0 0 1
    outer loop
      vertex -2 -0.5 0.375
      vertex 0 1.5 0.375
      vertex -2 1.5 0.375
    endloop
  endfacet
  facet normal 0 -1 0
    outer loop
      vertex -1.75 -0.75 -0.375
      vertex -0.75 -0.75 -0.375
      vertex -0.75 -0.75 0.375
    endloop
  endfacet
  facet normal 0 -1 0
    outer loop
      vertex -1.75 -0.75 0.375
      vertex -1.75 -0.75 -0.375
      vertex -0.75 -0.75 0.375
    endloop
  endfacet
  facet normal -1 0 0
    outer loop
      vertex -0.75 -1.75 0.375
      vertex -0.75 -0.75 0.375
      vertex -0.75 -1.75 -0.375
    endloop
  endfacet
  facet normal -1 0 0
    outer loop
      vertex -0.75 -1.75 -0.375
      vertex -0.75 -0.75 0.375
      vertex -0.75 -0.75 -0.375
    endloop
  endfacet
  facet normal 0 0 -1
    outer loop
      vertex -0.75 0.25 -0.375
      vertex 1.25 -1.75 -0.375
      vertex -0.75 -0.75 -0.375
    endloop
  endfacet
  facet normal 0 0 -1
    outer loop
      vertex -0.75 0.25 -0.375
      vertex -0.75 -0.75 -0.375
      vertex -1.75 -0.75 -0.375
    endloop
  endfacet
  facet normal 0 0 -1
    outer loop
      vertex -0.75 -0.75 -0.375
      vertex 1.25 -1.75 -0.375
      vertex -0.75 -1.75 -0.375
    endloop
  endfacet
  facet normal -0.707107 0.707107 0
    outer loop
      vertex -1.75 -0.75 0.375
      vertex -0.75 0.25 0.375
      vertex -1.75 -0.75 -0.375
    endloop
  endfacet
  facet normal -0.707107 0.707107 0
    outer loop
      vertex -1.75 -0.75 -0.375
      vertex -0.75 0.25 0.375
      vertex -0.75 0.25 -0.375
    endloop
  endfacet
  facet normal 0 0 1
    outer loop
      vertex 1.25 -1.75 0.375
      vertex -0.75 -0.75 0.375
      vertex -0.75 -1.75 0.375
    endloop
  endfacet
  facet normal 0 0 1
    outer loop
      vertex -0.75 0.25 0.375
      vertex -0.75 -0.75 0.375
      vertex 1.25 -1.75 0.375
    endloop
  endfacet
  facet normal 0 0 1
    outer loop
      vertex -1.75 -0.75 0.375
      vertex -0.75 -0.75 0.375
      vertex -0.75 0.25 0.375
    endloop
  endfacet
  facet normal 0 -1 0
    outer loop
      vertex -0.75 -1.75 -0.375
      vertex 1.25 -1.75 -0.375
      vertex 1.25 -1.75 0.375
    endloop
  endfacet
  facet normal 0 -1 0
    outer loop
      vertex -0.75 -1.75 0.375
      vertex -0.75 -1.75 -0.375
      vertex 1.25 -1.75 0.375
    endloop
  endfacet
  facet normal 0.707107 0.707107 0
    outer loop
      vertex -0.75 0.25 0.375
      vertex 1.25 -1.75 0.375
      vertex -0.75 0.25 -0.375
    endloop
  endfacet
  facet normal 0.707107 0.707107 0
    outer loop
      vertex -0.75 0.25 -0.375
      vertex 1.25 -1.75 0.375
      vertex 1.25 -1.75 -0.375
    endloop
  endfacet
  facet normal 1 0 0
    outer loop
      vertex 1.5 -1.75 -0.375
      vertex 1.5 0.25 -0.375
      vertex 1.5 0.25 0.375
    endloop
  endfacet
  facet normal 1 0 0
    outer loop
      vertex 1.5 -1.75 0.375
      vertex 1.5 -1.75 -0.375
      vertex 1.5 0.25 0.375
    endloop
  endfacet
  facet normal -0.707107 0.707107 0
    outer loop
      vertex 0.5 -0.75 0.375
      vertex 1.5 0.25 0.375
      vertex 0.5 -0.75 -0.375
    endloop
  endfacet
  facet normal -0.707107 0.707107 0
    outer loop
      vertex 0.5 -0.75 -0.375
      vertex 1.5 0.25 0.375
      vertex 1.5 0.25 -0.375
    endloop
  endfacet
  facet normal 0 0 -1
    outer loop
      vertex 0.5 -0.75 -0.375
      vertex 1.5 0.25 -0.375
      vertex 1.5 -1.75 -0.375
    endloop
  endfacet
  facet normal -0.707107 -0.707107 0
    outer loop
      vertex 0.5 -0.75 -0.375
      vertex 1.5 -1.75 -0.375
      vertex 1.5 -1.75 0.375
    endloop
  endfacet
  facet normal -0.707107 -0.707107 0
    outer loop
      vertex 0.5 -0.75 0.375
      vertex 0.5 -0.75 -0.375
      vertex 1.5 -1.75 0.375
    endloop
  endfacet
  facet normal 0 0 1
    outer loop
      vertex 0.5 -0.75 0.375
      vertex 1.5 -1.75 0.375
      vertex 1.5 0.25 0.375
    endloop
  endfacet
endsolid OpenSCAD_Model
