solid OpenSCAD_Model
  facet normal -0.707107 0.707107 0
    outer loop
      vertex -0.5 0.5 0.75
      vertex 0.5 1.5 0.75
      vertex -0.5 0.5 0
    endloop
  endfacet
  facet normal -0.707107 0.707107 0
    outer loop
      vertex -0.5 0.5 0
      vertex 0.5 1.5 0.75
      vertex 0.5 1.5 0
    endloop
  endfacet
  facet normal 0 0 -1
    outer loop
      vertex 0.5 1.5 0
      vertex 1.5 1.5 0
      vertex -0.5 0.5 0
    endloop
  endfacet
  facet normal 0 0 -1
    outer loop
      vertex -0.5 0.5 0
      vertex 1.5 1.5 0
      vertex 1.5 0.5 0
    endloop
  endfacet
  facet normal 0 0 -1
    outer loop
      vertex -0.5 0.5 0
      vertex 1.5 0.5 0
      vertex 0.5 -0.5 0
    endloop
  endfacet
  facet normal 0 1 0
    outer loop
      vertex 0.5 1.5 0.75
      vertex 1.5 1.5 0.75
      vertex 0.5 1.5 0
    endloop
  endfacet
  facet normal 0 1 0
    outer loop
      vertex 0.5 1.5 0
      vertex 1.5 1.5 0.75
      vertex 1.5 1.5 0
    endloop
  endfacet
  facet normal -0.707107 -0.707107 0
    outer loop
      vertex -0.5 0.5 0
      vertex 0.5 -0.5 0
      vertex 0.5 -0.5 0.75
    endloop
  endfacet
  facet normal -0.707107 -0.707107 0
    outer loop
      vertex -0.5 0.5 0.75
      vertex -0.5 0.5 0
      vertex 0.5 -0.5 0.75
    endloop
  endfacet
  facet normal 0 0 1
    outer loop
      vertex -0.5 0.5 0.75
      vertex 0.5 -0.5 0.75
      vertex 1.5 0.5 0.75
    endloop
  endfacet
  facet normal 0 0 1
    outer loop
      vertex 0.5 1.5 0.75
      vertex -0.5 0.5 0.75
      vertex 1.5 1.5 0.75
    endloop
  endfacet
  facet normal 0 0 1
    outer loop
      vertex 1.5 1.5 0.75
      vertex -0.5 0.5 0.75
      vertex 1.5 0.5 0.75
    endloop
  endfacet
  facet normal 0.707107 -0.707107 0
    outer loop
      vertex 0.5 -0.5 0
      vertex 1.5 0.5 0
      vertex 1.5 0.5 0.75
    endloop
  endfacet
  facet normal 0.707107 -0.707107 0
    outer loop
      vertex 0.5 -0.5 0.75
      vertex 0.5 -0.5 0
      vertex 1.5 0.5 0.75
    endloop
  endfacet
  facet normal 1 0 0
    outer loop
      vertex 1.5 0.5 0
      vertex 1.5 1.5 0
      vertex 1.5 1.5 0.75
    endloop
  endfacet
  facet normal 1 0 0
    outer loop
      vertex 1.5 0.5 0.75
      vertex 1.5 0.5 0
      vertex 1.5 1.5 0.75
    endloop
  endfacet
  facet normal 1 0 0
    outer loop
      vertex -1 -2 0
      vertex -1 -1 0
      vertex -1 -1 0.75
    endloop
  endfacet
  facet normal 1 0 0
    outer loop
      vertex -1 -2 0.75
      vertex -1 -2 0
      vertex -1 -1 0.75
    endloop
  endfacet
  facet normal 0 0 -1
    outer loop
      vertex -2 -1 0
      vertex -1 -1 0
      vertex -2 -2 0
    endloop
  endfacet
  facet normal 0 0 -1
    outer loop
      vertex -2 -2 0
      vertex -1 -1 0
      vertex -1 -2 0
    endloop
  endfacet
  facet normal 0 -1 0
    outer loop
      vertex -2 -2 0
      vertex -1 -2 0
      vertex -1 -2 0.75
    endloop
  endfacet
  facet normal 0 -1 0
    outer loop
      vertex -2 -2 0.75
      vertex -2 -2 0
      vertex -1 -2 0.75
    endloop
  endfacet
  facet normal 0 0 1
    outer loop
      vertex -2 -2 0.75
      vertex -1 -2 0.75
      vertex -1 -1 0.75
    endloop
  endfacet
  facet normal 0 0 1
    outer loop
      vertex -2 -1 0.75
      vertex -2 -2 0.75
      vertex -1 -1 0.75
    endloop
  endfacet
  facet normal 0 1 0
    outer loop
      vertex -2 -1 0.75
      vertex -1 -1 0.75
      vertex -2 -1 0
    endloop
  endfacet
  facet normal 0 1 0
    outer loop
      vertex -2 -1 0
      vertex -1 -1 0.75
      vertex -1 -1 0
    endloop
  endfacet
  facet normal -1 0 0
    outer loop
      vertex -2 -2 0.75
      vertex -2 -1 0.75
      vertex -2 -2 0
    endloop
  endfacet
  facet normal -1 0 0
    outer loop
      vertex -2 -2 0
      vertex -2 -1 0.75
      vertex -2 -1 0
    endloop
  endfacet
  facet normal 0 1 0
    outer loop
      vertex -2 1.5 0.75
      vertex 0 1.5 0.75
      vertex -2 1.5 0
    endloop
  endfacet
  facet normal 0 1 0
    outer loop
      vertex -2 1.5 0
      vertex 0 1.5 0.75
      vertex 0 1.5 0
    endloop
  endfacet
  facet normal 0 0 -1
    outer loop
      vertex -2 -0.5 0
      vertex -2 1.5 0
      vertex 0 1.5 0
    endloop
  endfacet
  facet normal 0.707107 -0.707107 0
    outer loop
      vertex -2 -0.5 0
      vertex 0 1.5 0
      vertex 0 1.5 0.75
    endloop
  endfacet
  facet normal 0.707107 -0.707107 0
    outer loop
      vertex -2 -0.5 0.75
      vertex -2 -0.5 0
      vertex 0 1.5 0.75
    endloop
  endfacet
  facet normal -1 0 0
    outer loop
      vertex -2 -0.5 0.75
      vertex -2 1.5 0.75
      vertex -2 -0.5 0
    endloop
  endfacet
  facet normal -1 0 0
    outer loop
      vertex -2 -0.5 0
      vertex -2 1.5 0.75
      vertex -2 1.5 0
    endloop
  endfacet
  facet normal 0 0 1
    outer loop
      vertex -2 -0.5 0.75
      vertex 0 1.5 0.75
      vertex -2 1.5 0.75
    endloop
  endfacet
  facet normal -1 0 0
    outer loop
      vertex -0.75 -1.75 0.75
      vertex -0.75 -0.75 0.75
      vertex -0.75 -1.75 0
    endloop
  endfacet
  facet normal -1 0 0
    outer loop
      vertex -0.75 -1.75 0
      vertex -0.75 -0.75 0.75
      vertex -0.75 -0.75 0
    endloop
  endfacet
  facet normal 0 0 -1
    outer loop
      vertex -0.75 0.25 0
      vertex 1.25 -1.75 0
      vertex -0.75 -0.75 0
    endloop
  endfacet
  facet normal 0 0 -1
    outer loop
      vertex -0.75 0.25 0
      vertex -0.75 -0.75 0
      vertex -1.75 -0.75 0
    endloop
  endfacet
  facet normal 0 0 -1
    outer loop
      vertex -0.75 -0.75 0
      vertex 1.25 -1.75 0
      vertex -0.75 -1.75 0
    endloop
  endfacet
  facet normal 0 -1 0
    outer loop
      vertex -1.75 -0.75 0
      vertex -0.75 -0.75 0
      vertex -0.75 -0.75 0.75
    endloop
  endfacet
  facet normal 0 -1 0
    outer loop
      vertex -1.75 -0.75 0.75
      vertex -1.75 -0.75 0
      vertex -0.75 -0.75 0.75
    endloop
  endfacet
  facet normal 0 -1 0
    outer loop
      vertex -0.75 -1.75 0
      vertex 1.25 -1.75 0
      vertex 1.25 -1.75 0.75
    endloop
  endfacet
  facet normal 0 -1 0
    outer loop
      vertex -0.75 -1.75 0.75
      vertex -0.75 -1.75 0
      vertex 1.25 -1.75 0.75
    endloop
  endfacet
  facet normal 0 0 1
    outer loop
      vertex 1.25 -1.75 0.75
      vertex -0.75 -0.75 0.75
      vertex -0.75 -1.75 0.75
    endloop
  endfacet
  facet normal 0 0 1
    outer loop
      vertex -0.75 0.25 0.75
      vertex -0.75 -0.75 0.75
      vertex 1.25 -1.75 0.75
    endloop
  endfacet
  facet normal 0 0 1
    outer loop
      vertex -1.75 -0.75 0.75
      vertex -0.75 -0.75 0.75
      vertex -0.75 0.25 0.75
    endloop
  endfacet
  facet normal -0.707107 0.707107 0
    outer loop
      vertex -1.75 -0.75 0.75
      vertex -0.75 0.25 0.75
      vertex -1.75 -0.75 0
    endloop
  endfacet
  facet normal -0.707107 0.707107 0
    outer loop
      vertex -1.75 -0.75 0
      vertex -0.75 0.25 0.75
      vertex -0.75 0.25 0
    endloop
  endfacet
  facet normal 0.707107 0.707107 0
    outer loop
      vertex -0.75 0.25 0.75
      vertex 1.25 -1.75 0.75
      vertex -0.75 0.25 0
    endloop
  endfacet
  facet normal 0.707107 0.707107 0
    outer loop
      vertex -0.75 0.25 0
      vertex 1.25 -1.75 0.75
      vertex 1.25 -1.75 0
    endloop
  endfacet
  facet normal -0.707107 0.707107 0
    outer loop
      vertex 0.75 -0.75 0.75
      vertex 1.75 0.25 0.75
      vertex 0.75 -0.75 0
    endloop
  endfacet
  facet normal -0.707107 0.707107 0
    outer loop
      vertex 0.75 -0.75 0
      vertex 1.75 0.25 0.75
      vertex 1.75 0.25 0
    endloop
  endfacet
  facet normal 0 0 -1
    outer loop
      vertex 0.75 -0.75 0
      vertex 1.75 0.25 0
      vertex 1.75 -1.75 0
    endloop
  endfacet
  facet normal 1 0 0
    outer loop
      vertex 1.75 -1.75 0
      vertex 1.75 0.25 0
      vertex 1.75 0.25 0.75
    endloop
  endfacet
  facet normal 1 0 0
    outer loop
      vertex 1.75 -1.75 0.75
      vertex 1.75 -1.75 0
      vertex 1.75 0.25 0.75
    endloop
  endfacet
  facet normal -0.707107 -0.707107 0
    outer loop
      vertex 0.75 -0.75 0
      vertex 1.75 -1.75 0
      vertex 1.75 -1.75 0.75
    endloop
  endfacet
  facet normal -0.707107 -0.707107 0
    outer loop
      vertex 0.75 -0.75 0.75
      vertex 0.75 -0.75 0
      vertex 1.75 -1.75 0.75
    endloop
  endfacet
  facet normal 0 0 1
    outer loop
      vertex 0.75 -0.75 0.75
      vertex 1.75 -1.75 0.75
      vertex 1.75 0.25 0.75
    endloop
  endfacet
endsolid OpenSCAD_Model
